<svg xmlns="http://www.w3.org/2000/svg" viewBox="0 0 279.29 57.42"><g id="Layer_2" data-name="Layer 2"><g id="Layer_1-2" data-name="Layer 1"><path class="cls-1" d="M244.86,22.06l5.6-3.62,14.46.63,6.51,6.87,1,5.24-2,1.63H243l-2-1.9v-3Zm10.48-8.23-8.77,1.36Q231.2,22.42,234.73,40L238,49.26q9.86,10.48,24.59,7.5l12.11-3,2.62-1.9-1-3a67.46,67.46,0,0,1-25.22,2.62L244,46.91,241,39l3-2.26,32.36.27,3-2.62V30.91l-2-7.23q-7.24-12-22-9.85M200.93,1.36,197,0l-2.62,2.26-.27,12.2-3.34,1.9h-2.89l-.36,3,5.24,1.36,1.63,1.9L195,46.28l2.35,5.24Q204.18,58.3,214,56.4q12.56-2.35,14.1-13.47l-3.26-1.27-6.6,6.87q-9,6.05-16.09-1a43,43,0,0,1-1-25.94l2.62-1.27,15.1.36,2-1.36v-2L218,15.46H202.19l-1.26-2ZM150.49,34.71l6.24-2.89,13.74.9,1.72,1.72.27,5.51q-5.88,10.93-19.34,9.58l-4.52-3-1-7.59Zm7.23-23.59-11.48,1.36-1.63,2.89,1,1a48.25,48.25,0,0,1,22,.36l4.61,5.51v4.61l-2.35,1.63a36.07,36.07,0,0,0-21,1l-6.24,6-1.27,8.86,2.26,5.51,2.62,2.62q11.93,5.88,23-2l2.26.36,3.62,3.62h6.24l2.62-2v-2l-5.61-2.89V22l-2.89-5.6q-6.78-7.59-17.72-5.24m-23.32.36-7.23-.36-11.12,4.25L112.44,19l-2.62-1-.36-4.61-2.26-1.9H99.33l-1.27,1,.27,2.26,4.25,2L103.94,19l-1,28.2-2.62,2.62-5.24.36-1,2.26,2,2,27.84.63,2-2-1.36-3.26-12.11-.63-2.62-2V29.47Q117.68,15.19,134.4,19L137,16.72V14.1ZM55.23,12.84H49.35l-1.35,1v2.26l2.26.36,2,2.62a66.45,66.45,0,0,0,1,29.47q4.88,8,14.46,7.23l8.13-3,2.62-2.62,2.62.72,3.34,3.89h6.51l1-3.25-4-3.62A56.66,56.66,0,0,0,86,14.19l-2.62-1.36-9.49.36v2.89l6.15,1.36,1,1.63V40.4l-9.13,9.13q-10.4,4.34-13.83-6.24l-.27-28.47Zm-25.67.27-6.87-.36L10.21,15Q-2.72,23.23.72,39.59L3,47.18q9.22,12.2,24.59,9.49l13.2-3,2.89-1.9V48.18l-4.25-.36A22,22,0,0,1,26.3,51.43q-10.4,2.26-16.36-5.61a22.78,22.78,0,0,1-1-22q7.41-9.67,19.62-6.51,9.76,1.81,13.11,10.75l3,.36,1-1V21.6L45,15.73,43.65,14.1l-10.12.63Z"/></g></g></svg>