<svg xmlns="http://www.w3.org/2000/svg" viewBox="0 0 594.19 66.62"><defs><style>.cls-1{fill:#555759;}</style></defs><g data-name="Layer 2"><g data-name="Layer 1"><path class="cls-1" d="M244.86,22.06l5.6-3.62,14.46.63,6.51,6.87,1,5.24-2,1.63H243l-2-1.9v-3Zm10.48-8.23-8.77,1.36Q231.2,22.42,234.73,40L238,49.26q9.86,10.48,24.59,7.5l12.11-3,2.62-1.9-1-3a67.46,67.46,0,0,1-25.22,2.62L244,46.91,241,39l3-2.26,32.36.27,3-2.62V30.91l-2-7.23q-7.24-12-22-9.85M200.93,1.36,197,0l-2.62,2.26-.27,12.2-3.34,1.9h-2.89l-.36,3,5.24,1.36,1.63,1.9L195,46.28l2.35,5.24Q204.18,58.3,214,56.4q12.56-2.35,14.1-13.47l-3.26-1.27-6.6,6.87q-9,6.05-16.09-1a43,43,0,0,1-1-25.94l2.62-1.27,15.1.36,2-1.36v-2L218,15.46H202.19l-1.26-2ZM150.49,34.71l6.24-2.89,13.74.9,1.72,1.72.27,5.51q-5.88,10.93-19.34,9.58l-4.52-3-1-7.59Zm7.23-23.59-11.48,1.36-1.63,2.89,1,1a48.25,48.25,0,0,1,22,.36l4.61,5.51v4.61l-2.35,1.63a36.07,36.07,0,0,0-21,1l-6.24,6-1.27,8.86,2.26,5.51,2.62,2.62q11.93,5.88,23-2l2.26.36,3.62,3.62h6.24l2.62-2v-2l-5.61-2.89V22l-2.89-5.6q-6.78-7.59-17.72-5.24m-23.32.36-7.23-.36-11.12,4.25L112.44,19l-2.62-1-.36-4.61-2.26-1.9H99.33l-1.27,1,.27,2.26,4.25,2L103.94,19l-1,28.2-2.62,2.62-5.24.36-1,2.26,2,2,27.84.63,2-2-1.36-3.26-12.11-.63-2.62-2V29.47Q117.68,15.19,134.4,19L137,16.72V14.1ZM55.23,12.84H49.35l-1.35,1v2.26l2.26.36,2,2.62a66.45,66.45,0,0,0,1,29.47q4.88,8,14.46,7.23l8.13-3,2.62-2.62,2.62.72,3.34,3.89h6.51l1-3.25-4-3.62A56.66,56.66,0,0,0,86,14.19l-2.62-1.36-9.49.36v2.89l6.15,1.36,1,1.63V40.4l-9.13,9.13q-10.4,4.34-13.83-6.24l-.27-28.47Zm-25.67.27-6.87-.36L10.21,15Q-2.72,23.23.72,39.59L3,47.18q9.22,12.2,24.59,9.49l13.2-3,2.89-1.9V48.18l-4.25-.36A22,22,0,0,1,26.3,51.43q-10.4,2.26-16.36-5.61a22.78,22.78,0,0,1-1-22q7.41-9.67,19.62-6.51,9.76,1.81,13.11,10.75l3,.36,1-1V21.6L45,15.73,43.65,14.1l-10.12.63Z"/><path class="cls-1" d="M584.74,12.5H582.4l-.32.24v.54l1.41.33.47.87V24.85l-.47.63-.63.24-.07.48a3.55,3.55,0,0,0,4,0l-.24-.71-1.11-.3-.24-.87.24-4.49a4.56,4.56,0,0,1,4.34-2.36l1.1.63.69,1.73-.15,5.2-1.11.87v.54l.39.24h3l.48-.72L592.85,25V18.72l-.45-1.11-1.19-.93a4.6,4.6,0,0,0-5,.87h-.63l-.39-.71.15-3.79Zm-13.8.89-1-.32-.63.54-.06,2.92-.8.46h-.69l-.09.72L569,18l.39.46.15,5.68.56,1.26a4.25,4.25,0,0,0,4,1.17q3-.56,3.38-3.23l-.78-.3L575.1,24.7a2.76,2.76,0,0,1-3.86-.24,10.34,10.34,0,0,1-.24-6.22l.63-.3,3.62.09.48-.32v-.48l-.69-.46h-3.8l-.3-.47ZM559.69,16h-3.23l-.39.39v.54l2.43.32.39.39V24.5l-.63.63-2.19.09-.33.54.24.39a20.59,20.59,0,0,0,7.24.24l.48-.48v-.48l-.39-.3h-2.45l-.48-.63q2.9-5.75-.7-8.5m.46-4.72-1-.09-.63.54v1.19l.39.87,1,.06.65-.69V11.74Zm-15.89,5.4-3.44-.24-.39.09-.09.54,1,.48.63.87,1.32,7.3.56.84h.93l.39-.39.72-3.14.63-.46.78,1.41.32,2,.63.71H549l.39-.39.24-1.58.39-.45,1.11-6,.54-.87.48-.09v-.54l-1-.24-2.21.24v.54l1,.56.24.69-.78,1.65-.09,1.58-.45,1.09-.71-.22-.54-2-.8-1.17h-.54l-.48.46a5.78,5.78,0,0,1-.93,2.84h-.39l-.33-.24a10.42,10.42,0,0,1-.93-4.79l.46-.48h.47Zm-24.05.13-2-.32-1.34.32-.93.69h-.71a1.81,1.81,0,0,0-2.66-.69v.45l.54.33.39.78v5.92l-.22,1-.87.54-.08.56,3.05.39.72-.47-.06-.54-.56-.17-.54-.69L514.77,20l2.06-2.21,2.12-.33,1.11.87a13.27,13.27,0,0,1,.46,6.61l-1.11.87-.15.56.39.39h2.84l.63-.39v-.33l-.87-.54-.3-.63a21.64,21.64,0,0,0-.48-6.93Zm-20.11,1,1.19-.56h2.82q3.1,1.54,2.45,5.2l-.87,1.71a3.81,3.81,0,0,1-4,1.34l-1.41-.63-1.5-1.8L498.69,20Zm1.74-1.58-2.28.54a5.23,5.23,0,0,0-2.36,5.74l.78,2a5.87,5.87,0,0,0,6,2.21l2.21-1A5.64,5.64,0,0,0,508,20.41l-.71-2a5,5,0,0,0-5.5-2.12M489.17,16h-3.23l-.39.39v.54l2.43.32.39.39V24.5l-.63.63-2.19.09-.33.54.24.39a20.59,20.59,0,0,0,7.24.24l.48-.48v-.48l-.39-.3h-2.45l-.48-.63q2.91-5.75-.69-8.5m.45-4.72-1-.09-.63.54v1.19l.39.87,1,.06.65-.69V11.74Zm-15.28,2.1-1-.32-.63.54-.06,2.92-.8.46h-.69l-.09.72,1.26.32.39.46.15,5.68.56,1.26a4.25,4.25,0,0,0,4,1.17q3-.56,3.38-3.23l-.78-.3-1.58,1.65a2.75,2.75,0,0,1-3.86-.24,10.29,10.29,0,0,1-.24-6.22l.63-.3,3.62.09.48-.32v-.48l-.69-.46h-3.79l-.3-.47Zm-15.13,8,1.5-.69,3.3.22.41.41.06,1.32a4.31,4.31,0,0,1-4.64,2.3l-1.08-.71-.24-1.82ZM461,15.73l-2.75.32-.39.69.24.24a11.56,11.56,0,0,1,5.27.08l1.11,1.32v1.1l-.56.39a8.63,8.63,0,0,0-5,.24l-1.5,1.43-.3,2.12.54,1.32.63.63a5,5,0,0,0,5.5-.48l.54.09.87.87h1.5l.63-.48v-.48l-1.34-.69V18.33L465.2,17A4.13,4.13,0,0,0,461,15.73m-8.62.09-1.73-.09-2.66,1-.87.87-.63-.24-.09-1.11-.54-.45h-1.89l-.3.24.06.54,1,.47.32.54-.24,6.76-.63.63-1.26.08-.24.54.47.48,6.68.15.48-.48L450,25l-2.9-.15-.63-.48V20.13q1.88-3.43,5.89-2.51l.63-.54v-.63Zm-21.65,2,1.19-.56h2.82q3.09,1.54,2.45,5.2l-.87,1.71a3.81,3.81,0,0,1-4,1.34l-1.41-.63-1.5-1.8L429.28,20Zm1.73-1.58-2.28.54a5.22,5.22,0,0,0-2.36,5.74l.78,2a5.86,5.86,0,0,0,6,2.21l2.21-1a5.64,5.64,0,0,0,1.89-5.42l-.72-2a5,5,0,0,0-5.5-2.12m-14,.74,1.71.24a4,4,0,0,1,2.45,4.64l-.48,1.08A4,4,0,0,1,418,24.76a3.75,3.75,0,0,1-2.75-4A3.79,3.79,0,0,1,418.44,17m-3.86-5-1.19-.09-.93.32-.09.45,1.17.56.33.63.15,4.08-.15,6.22-.48.78-.69.3v.56l1.88.24,1.32-1,1.58.93,2,.24,1.58-.48a5.7,5.7,0,0,0,2.75-6.35l-.72-1.58-1.32-1.26a4.7,4.7,0,0,0-5.92.3l-.39-.15-.24-.39.17-3.38Zm-13.85,9.43,1.5-.69,3.29.22.41.41.07,1.32a4.31,4.31,0,0,1-4.64,2.3l-1.08-.71L400,22.4Zm1.73-5.66-2.75.32-.39.69.24.24a11.57,11.57,0,0,1,5.27.08l1.1,1.32v1.1l-.56.39a8.63,8.63,0,0,0-5,.24l-1.5,1.43-.3,2.12.54,1.32.63.63a5,5,0,0,0,5.51-.48l.54.09.87.87h1.49l.63-.48v-.48l-1.34-.69V18.33L406.71,17a4.14,4.14,0,0,0-4.25-1.26m-12-2.17-2.12-.08L387,13.8l-.41.69L387,15l2.06.24.24.39V25l-.48.54-2.6.09-.48.69.48.32,7.87.15.48-.78-.63-.48h-2.6l-.63-.78.15-10.38Zm-13.31,0-2.12-.08-1.41.33-.41.69.48.48,2.06.24.24.39V25l-.48.54-2.6.09-.48.69.48.32,7.87.15.48-.78-.63-.48H378l-.63-.78.15-10.38Zm-17,4.27,1.19-.56h2.82q3.1,1.54,2.45,5.2l-.87,1.71a3.81,3.81,0,0,1-4,1.34l-1.41-.63-1.5-1.8L358.8,20Zm1.73-1.58-2.28.54a5.23,5.23,0,0,0-2.36,5.74l.78,2a5.87,5.87,0,0,0,6,2.21l2.21-1a5.65,5.65,0,0,0,1.89-5.42l-.71-2a5,5,0,0,0-5.51-2.12m-12.61,0-1.65-.09-3,.54q-3.1,2-2.28,5.89l.54,1.82a5.65,5.65,0,0,0,5.89,2.28l3.16-.71.69-.46v-.87l-1-.09a5.25,5.25,0,0,1-3.14.87A3.58,3.58,0,0,1,344.63,24a5.46,5.46,0,0,1-.24-5.27,4.15,4.15,0,0,1,4.7-1.56,3.88,3.88,0,0,1,3.14,2.58l.72.09.24-.24V18.24L353,16.83l-.32-.39-2.43.15Zm-31.92,5.18,1.5-.69,3.29.22.41.41.06,1.32a4.31,4.31,0,0,1-4.64,2.3L317,24.22l-.24-1.82Zm1.73-5.66-2.75.32-.39.69.24.24a11.56,11.56,0,0,1,5.27.08l1.1,1.32v1.1l-.56.39a8.63,8.63,0,0,0-5,.24l-1.5,1.43-.3,2.12.54,1.32.63.63a5,5,0,0,0,5.5-.48l.54.09.87.87h1.49l.63-.48v-.48l-1.34-.69V18.33L323.39,17a4.14,4.14,0,0,0-4.25-1.26"/><path class="cls-1" d="M406.32,55.9a26.74,26.74,0,0,0-.6-8.49l0-.09L404,45.77l-2.56-.42-1.7.41-1.17.84H398c-.79-1.26-2-1.55-3.56-.82l-.17.08v.92l.73.44.41.81v7.13l-.23,1.09-1.07.67L393.93,58l4.15.53,1.12-.75-.12-1-.79-.24-.54-.7-.2-5.74,2.36-2.53,2.36-.36,1.18.92a16,16,0,0,1,.54,7.73l-1.34,1-.25,1,.69.69h3.68l1-.61v-.73l-1.13-.7Z"/><path class="cls-1" d="M386.06,55.92l-.38-.5c2.34-4.72,2-8.28-1-10.59l-.08-.06h-4.17l-.65.65v1l3.13.42.32.32v8.12l-.6.6-2.72.11-.57,1,.45.74.13,0a25.27,25.27,0,0,0,5.27.56,26.45,26.45,0,0,0,3.68-.26h.1l.74-.74v-.86l-.68-.52Z"/><path class="cls-1" d="M373.19,55.9a26.74,26.74,0,0,0-.6-8.49l0-.09-1.67-1.56-2.56-.42-1.7.41-1.17.84h-.6c-.79-1.26-2-1.55-3.56-.82l-.17.08v.92l.73.44.4.81v7.13L362,56.25l-1.07.67L360.8,58l4.15.53,1.12-.75-.13-1-.79-.24-.54-.7-.2-5.74,2.36-2.53,2.36-.36,1.18.92a16,16,0,0,1,.54,7.73l-1.34,1-.26,1,.69.69h3.68l1-.61v-.73l-1.13-.7Z"/><polygon class="cls-1" points="351.73 42.76 352.7 41.72 352.7 39.74 352.04 39.01 350.56 38.88 349.58 39.71 349.58 41.31 350.16 42.66 351.73 42.76"/><polygon class="cls-1" points="384.87 42.76 385.84 41.72 385.84 39.74 385.18 39.01 383.69 38.88 382.72 39.71 382.72 41.31 383.3 42.66 384.87 42.76"/><path class="cls-1" d="M352.92,55.92l-.38-.5c2.34-4.72,2-8.28-1-10.59l-.08-.06h-4.17l-.65.65v1.05l3.13.42.32.32v8.12l-.6.6-2.72.11-.58,1,.45.74.13,0a25.28,25.28,0,0,0,5.27.56,26.44,26.44,0,0,0,3.68-.26h.1l.74-.74v-.86l-.67-.52Z"/><path class="cls-1" d="M337.92,41.7l-.75.75.71,1,1,.1.2.67-3.45,9.64-.24,0-3.45-9.63.39-.73,1.23-.43v-1l-1.11-.5h-3.27l-.74.13L328,42.79l.24.13a4,4,0,0,1,2.15,4.14v.12l.5.6a12.2,12.2,0,0,0,1.63,4.94,10.48,10.48,0,0,0,1.58,5.56l.07.11,1.7.37,1.46-2.69,0-.09a54.75,54.75,0,0,1,3.59-11.53l.8-1,1.18-.44v-.89l-.47-.47Z"/><polygon class="cls-1" points="507.6 56.48 506.99 55.72 507.18 43.07 506.6 41.79 503.77 41.67 501.89 42.11 501.2 43.27 502.02 44.09 504.5 44.37 504.67 44.65 504.67 56 504.25 56.48 501.04 56.59 500.2 57.81 501.11 58.43 510.99 58.62 511.8 57.29 510.74 56.48 507.6 56.48"/><path class="cls-1" d="M560.67,44.42l-3.32,1.27-1,1-.41-.15-.1-1.29-.84-.71h-2.52l-.59.46.12,1,1.31.61.31.51-.28,8.06-.61.61-1.6.11-.45,1,.81.82,8.41.19.82-.81-.55-1.31-3.65-.19-.57-.44v-5c1.48-2.63,3.72-3.56,6.84-2.86l.15,0,1-.85v-1l-.94-.94Z"/><path class="cls-1" d="M545.88,48.25a6.19,6.19,0,0,0-6.74-3l-2.57.4-.08,0c-3.13,1.47-4.35,4-3.62,7.66l1,2.7.06.11a7.42,7.42,0,0,0,5.58,2.49,9.62,9.62,0,0,0,1.92-.2l3.55-.87,1-.74-.45-1.36-.28.08a19.49,19.49,0,0,1-7.2.76L536.1,55l-.76-2,.61-.47,9.49.08,1.06-.93V50.53l-.59-2.2Zm-2,2.23-.36.29h-7.82l-.4-.38v-.66l1.05-1.59,1.51-1,4,.18,1.76,1.86Z"/><path class="cls-1" d="M580.57,48.53l-3.49.12.2,2.68a14.33,14.33,0,0,0-2.61,4.76l-.58.17-2.69-5.61.26-.62,1.14-.31V48.64l-4.52-.12-.48,1.09,1.26.76a38.88,38.88,0,0,0,3.54,8.82,5.93,5.93,0,0,1-2.5,5.39h-2.43L567.26,66l.65.47,6.4.19.73-.42V64.94l-1.73-.66.08-.85,4.58-8.8,0-.06v-.07c.1-2.42,1-3.83,2.85-4.33l.14,0,.45-1Z"/><path class="cls-1" d="M423.11,46.44h-.89l-1.43-.77-3.2-.11-1.22.42-.05,0a6.59,6.59,0,0,0-3.51,7l1,2.84,2.18,2,.06,0a6.44,6.44,0,0,0,6.78-.43l.36.54-.1,2-1,1.39a13.23,13.23,0,0,1-7.06.33l-.26-.06L414.29,63l.75.46h7.15l1.48-.52,1.76-2.16V48.06l.29-.6,1.14-.43V46l-2.69-.34Zm-2,1.35a4.81,4.81,0,0,1,2.13,5.58l-.55,1.17-1.61,1.63-2.81.27-1.43-.54a4.92,4.92,0,0,1-2.05-5.06,5,5,0,0,1,4.3-3.43Z"/><polygon class="cls-1" points="523.87 56.48 523.25 55.72 523.44 43.07 522.86 41.79 520.04 41.67 518.15 42.11 517.46 43.27 518.28 44.09 520.76 44.37 520.93 44.65 520.93 56 520.51 56.48 517.31 56.59 516.47 57.81 517.37 58.43 527.25 58.62 528.07 57.29 527 56.48 523.87 56.48"/><path class="cls-1" d="M443.28,52.38a6.45,6.45,0,0,0-4.78-2.07,8,8,0,0,0-1.51.15,3,3,0,0,1-2.94-1.4l.16-1.22,1.52-1,3.89.28,1.68.78.48,1,1.07.4.68-.71,0-.09a3.4,3.4,0,0,0-.85-3.12l-.13-.13-1.72.5-1.34-.54-4.53,0-2.31,1,0,.05a3.37,3.37,0,0,0-.08,4.81l.05,0a8.71,8.71,0,0,0,6.81,1.6c1.55.2,2.28.9,2.29,2.21-1,1.65-2.64,2.11-4.91,1.44h-.11c-2.21.16-3.44-.64-3.71-2.45l0-.17-1.11-.42-.52.52v1.87l.43,1.91.69.42,1.76-.41,2.51.85h3.63l1.95-.82,1.25-1.36.31-2.7-.51-1.11Z"/><path class="cls-1" d="M473.22,49.88l-.82.45.44,1.31,2.82.08.75.54v2.37A7,7,0,0,1,470.58,56l-2.1-1.57a9.4,9.4,0,0,1-1-8.57l.37-.1,1-1.87a4.75,4.75,0,0,1,5.26-.74l.11.38,1,.42,2.08,2.73h.86l.93-1.27-.31-3.57-.63-.72L476.28,41l-.83.35L474,40.79l-2.72-.12-1.24.11-2.41,1.17-.08.06a10,10,0,0,0-3,9l1.06,3.44,0,.06a6.37,6.37,0,0,0,5.87,3.67,9.48,9.48,0,0,0,1.68-.16l4-1.16.06,0c1.78-1,2.3-2.56,1.57-4.75l.77-.49.29-1.08-.28-.08A14.56,14.56,0,0,0,473.22,49.88Z"/><path class="cls-1" d="M494.54,47.83l-.88-1.71,0-.06a5.14,5.14,0,0,0-4-1.8,7.05,7.05,0,0,0-1.48.17l-3.52.41L484,46l.57.57.16,0a13.93,13.93,0,0,1,6.21.08l1.22,1.46v1.08l-.45.31a10.88,10.88,0,0,0-6.18.33l-2,1.89-.4,2.78.69,1.69.83.87.08.06a6.94,6.94,0,0,0,3.07.77,6.73,6.73,0,0,0,3.86-1.3l.45.07,1.08,1.08h2.06l1-.73v-.92l-1.64-.85Zm-2.33,5.27A4.93,4.93,0,0,1,487,55.69l-1.15-.76-.26-2,.73-1.08L488,51.1l3.84.25.34.34Z"/></g></g></svg>